<svg width="38" height="38" viewBox="0 0 38 38" fill="none" xmlns="http://www.w3.org/2000/svg">
<g id="Systems / question-fill" clip-path="url(#clip0_2153_317)">
<g id="Group">
<path id="Vector" d="M19.0003 34.8327C10.2556 34.8327 3.16699 27.7441 3.16699 18.9993C3.16699 10.2546 10.2556 3.16602 19.0003 3.16602C27.7451 3.16602 34.8337 10.2546 34.8337 18.9993C34.8337 27.7441 27.7451 34.8327 19.0003 34.8327ZM17.417 23.7493V26.916H20.5837V23.7493H17.417ZM20.5837 21.1448C21.8561 20.7612 22.9485 19.9334 23.6619 18.8121C24.3753 17.6908 24.6622 16.3505 24.4703 15.0354C24.2785 13.7203 23.6207 12.5179 22.6167 11.6471C21.6127 10.7763 20.3293 10.295 19.0003 10.291C17.7192 10.2909 16.4775 10.7346 15.4866 11.5466C14.4956 12.3586 13.8165 13.4888 13.5647 14.7449L16.6712 15.3672C16.7594 14.9261 16.971 14.5192 17.2814 14.1936C17.5918 13.8681 17.9883 13.6375 18.4247 13.5285C18.861 13.4195 19.3194 13.4366 19.7464 13.578C20.1734 13.7193 20.5515 13.979 20.8367 14.3268C21.1219 14.6746 21.3025 15.0963 21.3574 15.5427C21.4123 15.9891 21.3393 16.442 21.147 16.8485C20.9546 17.2551 20.6507 17.5987 20.2707 17.8393C19.8907 18.0799 19.4501 18.2077 19.0003 18.2077C18.5804 18.2077 18.1777 18.3745 17.8807 18.6714C17.5838 18.9684 17.417 19.3711 17.417 19.791V22.166H20.5837V21.1448Z" fill="white"/>
</g>
</g>
<defs>
<clipPath id="clip0_2153_317">
<rect width="38" height="38" fill="white"/>
</clipPath>
</defs>
</svg>
